<svg width="289" height="38" viewBox="0 0 289 38" fill="none" xmlns="http://www.w3.org/2000/svg">
<path d="M24.3942 0.318184H36.5913V37.4398H26.3033L12.1971 20.576V37.4398H0V0.318184H10.288L24.3942 17.182V0.318184Z" fill="#D2CBBA"/>
<path d="M72.3187 18.0305C76.6672 19.6214 79.2127 22.8033 79.2127 27.2048C79.2127 33.6746 73.7505 37.4398 63.5156 37.4398H42.6214V0.318184H62.455C72.6899 0.318184 77.4627 4.40156 77.4627 10.0228C77.4627 13.4698 75.7127 16.3335 72.3187 18.0305ZM60.758 9.06827H54.9246V14.5835H60.758C63.5686 14.5835 64.8414 13.6289 64.8414 11.8259C64.8414 10.0228 63.5686 9.06827 60.758 9.06827ZM62.455 28.6897C65.2126 28.6897 66.5914 27.6821 66.5914 25.773C66.5914 23.8639 65.2126 22.8563 62.455 22.8563H54.9246V28.6897H62.455Z" fill="#D2CBBA"/>
<path d="M112.804 31.3942V18.879H116.57V33.0382C113.07 36.167 108.085 37.7579 102.941 37.7579C91.6451 37.7579 83.3723 29.7503 83.3723 18.879C83.3723 8.00766 91.6451 0 102.994 0C108.615 0 113.494 1.80305 116.782 5.35611L114.342 7.84856C111.213 4.77277 107.501 3.50003 103.153 3.50003C93.9785 3.50003 87.2436 10.0228 87.2436 18.879C87.2436 27.6821 93.9785 34.2579 103.1 34.2579C106.653 34.2579 109.941 33.4624 112.804 31.3942Z" fill="#D2CBBA"/>
<path d="M174.874 0.318184H178.639L166.124 37.4398H161.987L151.116 5.78036L140.192 37.4398H136.108L123.593 0.318184H127.623L138.335 32.2427L149.419 0.318184H153.078L164.002 32.4018L174.874 0.318184Z" fill="#D2CBBA"/>
<path d="M189.758 34.0458H212.084V37.4398H185.834V0.318184H211.289V3.71216H189.758V16.9168H208.956V20.2578H189.758V34.0458Z" fill="#D2CBBA"/>
<path d="M248.461 0.318184H252.332V37.4398H249.097L225.233 7.31825V37.4398H221.309V0.318184H224.544L248.461 30.4397V0.318184Z" fill="#D2CBBA"/>
<path d="M271.66 37.4398V3.71216H258.615V0.318184H288.63V3.71216H275.585V37.4398H271.66Z" fill="#D2CBBA"/>
</svg>
