<svg width="168" height="40" viewBox="0 0 168 40" fill="none" xmlns="http://www.w3.org/2000/svg">
<path d="M26.6215 1.22638H31.9246V38.348H27.576L5.30308 10.6659V38.348H0V1.22638H4.34853L26.6215 28.9085V1.22638Z" fill="white"/>
<path d="M68.0133 19.0978C72.2027 20.2644 74.9603 23.3933 74.9603 28.3251C74.9603 34.6888 70.1345 38.348 60.748 38.348H43.0357V1.22638H59.6874C68.2254 1.22638 72.9982 4.83248 72.9982 10.825C72.9982 14.8553 70.93 17.6659 68.0133 19.0978ZM59.2101 5.52188H48.3388V17.4008H59.2101C64.6193 17.4008 67.6951 15.3856 67.6951 11.4613C67.6951 7.53705 64.6193 5.52188 59.2101 5.52188ZM60.5359 34.0525C66.4223 34.0525 69.6042 32.1964 69.6042 27.9009C69.6042 23.6054 66.4223 21.6963 60.5359 21.6963H48.3388V34.0525H60.5359Z" fill="white"/>
<path d="M80.2016 23.3933H80.1486C83.4365 14.5902 90.5957 5.78704 98.1791 1.54457C101.202 -0.152415 105.55 -1.21303 106.77 2.55216C107.141 3.71883 106.664 6.74159 105.762 8.75676C104.384 11.8856 102.422 15.0144 101.785 15.1205C101.149 15.2265 101.255 14.6962 102.315 13.0523C104.012 10.4537 105.126 7.90827 105.55 5.73401C105.922 4.03702 105.922 3.8249 105.656 2.92337C104.967 0.430923 102.209 0.643047 98.7624 2.60519C93.7775 5.41582 87.3078 11.8856 83.5426 18.9917C80.5198 24.613 79.2471 30.5524 80.4138 33.5222C81.8456 37.1282 85.6108 36.5449 90.1714 32.0373C90.8608 31.3479 92.1336 29.9161 92.9821 28.8554C95.4215 25.8327 97.6488 22.969 97.5958 22.916C97.5427 22.8099 94.7321 23.3402 93.9897 23.5524C93.3003 23.7645 92.929 23.6054 93.0881 23.1281C93.1942 22.8099 93.4593 22.7039 94.4139 22.4387C97.5427 21.6433 102.209 21.3251 102.634 21.8554C103.005 22.2796 102.74 22.4917 101.944 22.4387C101.573 22.3857 100.831 22.3857 100.353 22.4387L99.4518 22.5448L98.4973 24.1357C96.1109 28.06 92.5578 35.7494 92.1336 37.9767C91.9215 39.0374 91.6033 39.3025 91.179 38.7722C91.0199 38.5601 91.0199 38.1889 91.126 37.5525C91.2851 36.651 93.2472 31.613 94.2548 29.5448C94.6791 28.6433 94.6791 28.5373 94.3609 28.8554C90.3305 33.4691 88.9517 34.7419 86.6714 35.9085C84.8153 36.8101 82.9593 37.0222 81.4744 36.1737C79.9895 35.3782 79.088 33.6812 78.8228 31.1888C78.6638 29.5448 79.3532 25.6206 80.2016 23.3933Z" fill="white"/>
<path d="M125.197 21.5372L125.515 21.5902C125.568 21.7493 124.985 22.1736 124.242 22.6508C123.341 23.2342 122.705 23.4463 121.962 23.7115C120.636 24.1887 118.939 24.4009 118.091 24.1887C117.136 23.9766 117.083 23.9766 116.712 24.4539C116.182 25.1433 114.644 26.4691 114.061 26.7342C113.212 27.1054 112.311 27.0524 111.886 26.5751C111.462 26.1509 111.303 25.6736 111.197 24.5069L111.144 23.8175L110.083 24.9842C109.023 26.1509 108.068 26.8403 107.432 26.8403C107.22 26.8403 106.901 26.6812 106.689 26.5221C106.318 26.2569 106.265 26.0978 106.371 25.2493C106.477 24.2418 106.954 22.863 107.697 21.4842C108.068 20.7948 108.227 20.6357 108.598 20.6357C109.288 20.6357 109.288 21.0069 108.651 22.1736C108.015 23.2872 107.22 25.6206 107.379 25.7797C107.538 25.9387 108.174 25.3554 109.288 24.0827C111.144 22.0145 111.462 21.8023 112.045 22.2796C112.258 22.4387 112.311 22.7569 112.258 23.7645C112.151 25.0372 112.417 26.2039 112.788 26.2039C113.106 26.2039 114.856 24.7721 115.386 24.0827C115.811 23.4993 115.97 23.1281 115.97 22.5978C115.97 21.5902 116.5 20.7417 117.189 20.6887C118.038 20.6357 118.25 21.219 117.826 22.3327C117.667 22.8099 117.561 23.2342 117.614 23.2872C117.667 23.3402 118.197 23.3933 118.78 23.3933C120.106 23.3933 121.538 23.0751 123.235 21.9614C124.402 21.219 125.091 21.0599 125.197 21.5372Z" fill="white"/>
<path d="M132.88 22.4387L132.933 22.4917C134.842 21.0069 135.054 21.4311 135.001 21.7493C135.001 21.9084 134.471 22.5448 133.251 23.4993C129.327 26.5751 126.622 27.7418 124.289 27.3706C122.486 27.0524 121.531 26.0978 121.69 24.7721C121.903 22.916 124.183 20.9008 125.827 20.9008C126.039 20.9008 126.251 20.9538 126.463 21.0599C127.365 21.4842 127.312 22.4387 126.251 23.3402C125.668 23.8705 125.031 23.9766 124.395 24.0296C123.334 24.0827 123.228 23.9236 123.069 24.2418C122.963 24.4539 122.91 24.8781 122.963 25.1963C123.016 26.0448 123.706 26.4691 125.031 26.4691C126.887 26.4691 129.274 25.2493 132.88 22.4387ZM124.395 22.4917L124.448 22.3327C124.077 22.6508 124.024 22.8099 124.183 22.916C124.501 23.0751 124.501 23.0751 125.19 22.7569C125.721 22.4917 126.145 21.9084 125.933 21.7493C125.933 21.7493 125.88 21.7493 125.827 21.7493C125.562 21.7493 124.925 22.0675 124.395 22.4917Z" fill="white"/>
<path d="M150.609 21.5902L150.768 21.3781C150.821 21.5372 150.503 21.9084 149.919 22.3857C148.434 23.6584 145.518 25.6206 143.609 26.416C141.7 27.2645 140.427 27.1585 139.79 26.1509C139.419 25.5675 139.525 24.9312 140.215 23.1281C140.48 22.4387 140.639 21.8554 140.586 21.8023C140.321 21.5902 137.722 23.1281 136.29 24.3478C134.859 25.5675 132.896 26.8933 132.525 26.8933C132.313 26.8933 131.995 26.7872 131.836 26.6281C131.624 26.4691 131.571 26.2039 131.624 25.8327C131.836 24.666 133.904 21.219 134.646 20.8478C134.859 20.7417 135.018 20.7417 135.23 20.9538C135.548 21.219 135.548 21.272 135.071 21.9084C134.381 22.863 133.109 24.9842 132.949 25.4615C132.843 25.7266 133.427 25.3554 134.912 24.1887C138.412 21.4842 140.374 20.5826 141.275 21.272C141.806 21.6432 141.753 22.3857 141.169 23.8175C140.639 25.0903 140.533 26.0978 140.904 26.2039C141.859 26.4691 144.722 24.9842 148.434 22.3327C149.919 21.272 150.397 21.1129 150.609 21.5902Z" fill="white"/>
<path d="M161.782 13.4765L161.729 13.4235C167.774 13.4765 168.092 13.5295 167.986 14.2189C167.933 14.5902 166.979 14.7492 166.607 14.4841C166.395 14.325 157.274 14.272 156.001 14.4311C155.365 14.5371 155.259 14.6432 154.676 15.6508C154.304 16.2341 153.509 17.5599 152.926 18.5675C144.706 32.6737 143.327 35.5904 143.327 36.5979C143.327 36.9692 143.274 37.3934 143.168 37.4995C142.903 37.8177 142.107 37.7646 141.895 37.3934C141.524 36.8101 143.592 32.4085 146.774 26.8403C147.941 24.7721 149.532 22.0145 150.274 20.6887C151.016 19.3629 152.13 17.4538 152.713 16.4462C153.297 15.4386 153.721 14.5902 153.668 14.5371C153.562 14.4311 146.827 14.7492 145.077 14.9614C143.804 15.1205 143.645 15.1205 143.433 14.8553C143.062 14.4311 143.433 14.2189 145.024 14.0068C146.668 13.7947 151.706 13.4765 153.403 13.4765H154.463L155.63 11.6735C156.479 10.4007 156.903 9.87041 157.168 9.81738C157.91 9.71132 157.857 10.2947 156.956 11.7795C156.479 12.575 156.107 13.2644 156.107 13.3174C156.107 13.3704 158.653 13.4235 161.782 13.4765Z" fill="white"/>
</svg>
